<svg width="16" height="16" viewBox="0 0 16 16" fill="none" xmlns="http://www.w3.org/2000/svg">
<path fill-rule="evenodd" clip-rule="evenodd" d="M7.99996 1.4414C10.136 1.4414 10.3891 1.44955 11.2327 1.48798C12.0125 1.52358 12.4361 1.65398 12.7179 1.76344C13.0914 1.90859 13.358 2.08196 13.6379 2.36188C13.9179 2.64189 14.0912 2.90834 14.2364 3.28177C14.346 3.56366 14.4764 3.98727 14.5119 4.76723C14.5502 5.61077 14.5585 5.86383 14.5585 7.9999C14.5585 10.136 14.5502 10.389 14.5119 11.2327C14.4764 12.0126 14.346 12.4361 14.2364 12.718C14.0913 13.0915 13.9179 13.3578 13.6379 13.6378C13.358 13.9178 13.0915 14.0912 12.7179 14.2364C12.4361 14.3459 12.0122 14.4764 11.2327 14.5119C10.3891 14.5503 10.1363 14.5585 7.99996 14.5585C5.86372 14.5585 5.61074 14.5503 4.76729 14.5119C3.98732 14.4764 3.56371 14.3459 3.28182 14.2364C2.9084 14.0914 2.64195 13.9178 2.36194 13.6378C2.08194 13.3578 1.90865 13.0915 1.7635 12.718C1.65404 12.4361 1.52356 12.0125 1.48804 11.2327C1.44952 10.389 1.44137 10.1361 1.44137 7.9999C1.44137 5.86383 1.44952 5.61085 1.48804 4.76723C1.52356 3.98727 1.65404 3.56366 1.7635 3.28177C1.90865 2.90834 2.08194 2.64189 2.36194 2.36188C2.64186 2.08196 2.9084 1.90859 3.28182 1.76344C3.56371 1.65389 3.98732 1.52358 4.76729 1.48798C5.61091 1.44955 5.86389 1.4414 7.99996 1.4414ZM7.99996 0C5.82726 0 5.5548 0.00917908 4.70158 0.0481258C3.85007 0.0870726 3.26853 0.222271 2.75964 0.420007C2.23361 0.624435 1.78743 0.898006 1.34272 1.34272C0.898006 1.78743 0.624435 2.23361 0.420007 2.75964C0.222185 3.26861 0.0869868 3.85007 0.0481258 4.70158C0.00917908 5.5548 0 5.82726 0 7.99987C0 10.1726 0.00909329 10.4449 0.0481258 11.2982C0.0869868 12.1498 0.222185 12.7311 0.420007 13.2401C0.624435 13.7662 0.898006 14.2124 1.34272 14.6572C1.78752 15.1021 2.23361 15.3755 2.75964 15.5799C3.26853 15.7778 3.84998 15.913 4.70158 15.9519C5.5548 15.9907 5.82726 16 7.99996 16C10.1726 16 10.4449 15.9908 11.2983 15.9519C12.1498 15.913 12.7314 15.7778 13.2401 15.5799C13.7662 15.3755 14.2124 15.1021 14.6573 14.6572C15.1021 14.2124 15.3754 13.7662 15.58 13.2401C15.7778 12.7311 15.913 12.1498 15.9518 11.2982C15.9906 10.445 16 10.1726 16 7.99987C16 5.82726 15.9909 5.55489 15.9518 4.70158C15.913 3.85007 15.7778 3.26853 15.58 2.75964C15.3754 2.23361 15.1021 1.78743 14.6573 1.34272C14.2124 0.898006 13.7662 0.624435 13.2401 0.420007C12.7314 0.222271 12.1498 0.0870726 11.2983 0.0481258C10.445 0.00917908 10.1726 0 7.99996 0ZM8.00066 3.89185C5.7318 3.89185 3.89255 5.7311 3.89255 7.99988C3.89255 10.2687 5.7318 12.1079 8.00066 12.1079C10.2694 12.1079 12.1086 10.2688 12.1086 7.99988C12.1087 5.7311 10.2694 3.89185 8.00066 3.89185ZM8.00066 10.6664C6.52788 10.6664 5.334 9.47259 5.334 7.99982C5.334 6.52714 6.52788 5.33326 8.00066 5.33326C9.47334 5.33326 10.6671 6.52714 10.6671 7.99982C10.6672 9.47259 9.47343 10.6664 8.00066 10.6664ZM13.2303 3.72947C13.2303 4.25963 12.8005 4.68942 12.2703 4.68942C11.7401 4.68942 11.3105 4.25954 11.3105 3.72947C11.3105 3.19923 11.7404 2.76953 12.2703 2.76953C12.8005 2.76944 13.2303 3.19923 13.2303 3.72947Z" fill="white"/>
</svg>
