<svg width="16" height="16" viewBox="0 0 16 16" fill="none" xmlns="http://www.w3.org/2000/svg">
<path fill-rule="evenodd" clip-rule="evenodd" d="M0.265579 5.312H3.5816V16.0003H0.265579V5.312ZM5.66016 5.31178H8.84019V6.77187H8.88824C9.32807 5.93229 10.412 5.04834 12.0242 5.04834C15.3802 5.04834 16.0002 7.26046 16.0002 10.1401V16.0001H12.6883V10.804C12.6883 9.56411 12.6643 7.96822 10.9642 7.96822C9.24023 7.96822 8.97629 9.32017 8.97629 10.7118V16H5.66016V5.31178ZM1.92399 0C2.98393 0 3.844 0.864155 3.844 1.9243C3.844 2.98833 2.98393 3.85189 1.92399 3.85189C0.859971 3.85189 0 2.98833 0 1.9243C0 0.864056 0.859872 0 1.92399 0Z" fill="white"/>
</svg>
