<svg width="16" height="16" viewBox="0 0 16 16" fill="none" xmlns="http://www.w3.org/2000/svg">
<path fill-rule="evenodd" clip-rule="evenodd" d="M1.89733 4.53879C1.91733 4.34611 1.842 4.15604 1.69533 4.02672L0.202 2.26322V2H4.84067L8.426 9.70389L11.578 2H16V2.26322L14.7227 3.46305C14.6127 3.54535 14.558 3.68055 14.5807 3.81445V12.6306C14.558 12.7639 14.6127 12.8991 14.7227 12.9814L15.97 14.1812V14.4444H9.69533V14.1812L10.988 12.952C11.1147 12.8279 11.1147 12.7913 11.1147 12.6013V5.4754L7.522 14.4157H7.03667L2.85333 5.4754V11.4674C2.81867 11.7189 2.904 11.9729 3.08467 12.1545L4.76533 14.1518V14.4157H0V14.1518L1.68067 12.1545C1.86067 11.9723 1.94067 11.7169 1.89733 11.4674V4.53879Z" fill="white"/>
</svg>
