<svg width="16" height="16" viewBox="0 0 16 16" fill="none" xmlns="http://www.w3.org/2000/svg">
<path fill-rule="evenodd" clip-rule="evenodd" d="M5.02601 14.1335C11.0636 14.1335 14.3673 9.20751 14.3673 4.94294C14.3673 4.80436 14.3673 4.66578 14.3609 4.5272C15.0012 4.07365 15.5582 3.50042 16 2.85161C15.411 3.10987 14.7771 3.27995 14.1112 3.36184C14.7899 2.96499 15.3085 2.32877 15.5582 1.57287C14.9244 1.94452 14.2201 2.20909 13.471 2.35397C12.8691 1.72405 12.0176 1.3335 11.0764 1.3335C9.26451 1.3335 7.79192 2.78231 7.79192 4.56499C7.79192 4.81696 7.82393 5.06263 7.87515 5.302C5.14766 5.16972 2.72749 3.87838 1.10764 1.92562C0.82593 2.40436 0.665866 2.95869 0.665866 3.55082C0.665866 4.67208 1.2485 5.66105 2.12565 6.24058C1.58784 6.22168 1.08203 6.0768 0.640256 5.83743C0.640256 5.85003 0.640256 5.86263 0.640256 5.88153C0.640256 7.44373 1.77351 8.75397 3.27171 9.05003C2.9964 9.12562 2.70828 9.16342 2.40736 9.16342C2.19608 9.16342 1.9912 9.14452 1.79272 9.10672C2.20888 10.3918 3.42537 11.324 4.85954 11.3492C3.73269 12.2185 2.31773 12.7351 0.781112 12.7351C0.518607 12.7351 0.256102 12.7225 0 12.691C1.44698 13.5981 3.17567 14.1335 5.02601 14.1335Z" fill="white"/>
</svg>
