<svg width="46" height="45" viewBox="0 0 46 45" fill="none" xmlns="http://www.w3.org/2000/svg">
<path d="M28.5479 25.6518C28.3393 26.0523 28.0755 26.419 27.7662 26.7424L34.8988 33.9495C35.6593 33.3481 36.739 33.3609 37.4804 33.9826C38.3436 34.7077 38.4557 35.9942 37.7312 36.8574C37.009 37.7183 35.7231 37.8333 34.8593 37.1087C33.9937 36.3842 33.8828 35.0972 34.6085 34.238L27.4703 27.0264C27.0408 27.4045 26.5429 27.7063 25.9968 27.9102L27.7404 33.0484C28.6896 32.8243 29.6567 33.2946 30.0625 34.1758C30.5374 35.1992 30.091 36.4102 29.0669 36.8833C28.044 37.3536 26.8336 36.9077 26.3628 35.8884C25.8891 34.8637 26.3355 33.6539 27.3584 33.179C27.3584 33.179 26.7699 31.3971 25.6054 28.0364C25.2016 28.1482 24.7767 28.2091 24.3373 28.2091C23.6919 28.2091 23.0768 28.0797 22.5159 27.8464L17.1912 40.7639C18.0475 41.2214 18.4608 42.2181 18.1822 43.1499C17.8594 44.2291 16.721 44.8398 15.6453 44.5153C14.5667 44.1931 13.9524 43.0576 14.2752 41.9795C14.5986 40.8998 15.7335 40.2855 16.8168 40.6101C16.8168 40.6101 20.3399 32.0622 22.1468 27.673C21.9192 27.5543 21.7018 27.4188 21.4977 27.2662L17.1548 32.7352C17.8601 33.4034 17.9913 34.4744 17.4776 35.2953C16.8762 36.2509 15.6181 36.5377 14.6661 35.9362C13.714 35.3389 13.4272 34.0797 14.0246 33.1241C14.6225 32.1721 15.8811 31.8859 16.8367 32.4833L21.1832 27.0081C20.9395 26.7911 20.7181 26.5498 20.5234 26.2873L8.85192 34.161C9.31401 35.0126 9.10678 36.0721 8.36195 36.6932C7.49755 37.4137 6.21169 37.2946 5.4901 36.4262C4.76909 35.5618 4.88867 34.2765 5.75307 33.5549C6.62095 32.838 7.90333 32.9535 8.62843 33.822L20.2955 25.9505C20.017 25.4988 19.8123 24.9969 19.6977 24.4615L17.1236 24.9299C17.199 25.8971 16.5819 26.7859 15.6496 27.0524C14.5669 27.3629 13.4396 26.7377 13.1284 25.6544C12.8184 24.5712 13.4436 23.4438 14.5269 23.1332C15.6101 22.822 16.7375 23.4479 17.0522 24.5311L19.6306 24.062C19.6059 23.8659 19.5917 23.6664 19.5917 23.4635C19.5917 23.2135 19.6113 22.9681 19.6486 22.7286L10.1175 20.7955C9.83068 21.7197 8.93436 22.3176 7.96663 22.2219C6.84737 22.1098 6.03056 21.1066 6.1426 19.9915C6.25465 18.8681 7.25781 18.0554 8.37299 18.1669C9.49631 18.2783 10.3125 19.2739 10.2011 20.3973L19.7288 22.331C19.7793 22.1246 19.8437 21.9239 19.9202 21.7291L4.4138 14.8608C3.93545 15.7049 2.92824 16.0949 2.0081 15.7925C0.932955 15.4419 0.35186 14.2866 0.701908 13.2196C1.05253 12.1439 2.20781 11.5622 3.27481 11.9128C4.34645 12.2635 4.93221 13.4187 4.58158 14.4858L20.0856 21.3554C20.2179 21.0893 20.374 20.8371 20.5519 20.602L15.7186 16.5627C15.0092 17.2315 13.9341 17.3116 13.1457 16.7461C12.2215 16.1006 11.998 14.8263 12.6517 13.9103C13.2967 12.9861 14.5715 12.7637 15.4911 13.4168C16.4112 14.0618 16.6341 15.3361 15.981 16.2602L20.8117 20.2876C20.9439 20.1409 21.0857 20.0032 21.235 19.874L14.8888 11.3064C14.0598 11.8004 12.9893 11.6407 12.3397 10.9238C11.5827 10.0954 11.643 8.80488 12.4749 8.04789C13.3115 7.28395 14.602 7.34718 15.3584 8.18375C16.1154 9.02025 16.0516 10.3026 15.2191 11.0678L21.554 19.6208C21.9695 19.3194 22.4351 19.083 22.9368 18.9282L21.4368 11.2722C20.472 11.368 19.5721 10.7788 19.286 9.84645C18.9545 8.77128 19.5559 7.63055 20.6316 7.29968C21.7108 6.96472 22.8493 7.57018 23.1848 8.64359C23.5151 9.71931 22.9143 10.8658 21.838 11.1927L23.3336 18.8253C23.6573 18.7556 23.9928 18.7179 24.3373 18.7179C24.3841 18.7179 24.4303 18.7201 24.4767 18.7215L25.2605 4.65625C24.3003 4.50588 23.5799 3.70072 23.5398 2.7289C23.4841 1.60555 24.3601 0.65758 25.4835 0.601845C26.6062 0.554221 27.5635 1.42213 27.6099 2.55359C27.6633 3.67633 26.7902 4.62491 25.6669 4.68004L24.884 18.7503C25.2463 18.7918 25.5962 18.8739 25.929 18.9923L27.2088 15.8417C26.3548 15.3795 25.9455 14.3834 26.2288 13.4522C26.5557 12.3765 27.6935 11.771 28.7698 12.0978C29.8484 12.4241 30.4539 13.5636 30.1271 14.6388C29.8002 15.7139 28.6653 16.3276 27.5826 16.0007L26.3053 19.1455C26.6674 19.3108 27.0052 19.5199 27.3116 19.7667L35.3205 10.8928C34.6674 10.1759 34.6128 9.09263 35.1887 8.3118C35.854 7.40444 37.1317 7.21291 38.0368 7.88227C38.9448 8.55157 39.1398 9.82639 38.4699 10.7338C37.8057 11.6423 36.528 11.8333 35.6229 11.1645L27.6161 20.0346C27.8315 20.2406 28.0274 20.4666 28.201 20.7098L41.535 12.2873C41.1031 11.4194 41.3394 10.3675 42.1034 9.77011C42.9928 9.07757 44.274 9.23661 44.9677 10.1207C45.6603 11.0055 45.5047 12.2873 44.6171 12.9805C43.7277 13.673 42.4453 13.5215 41.7539 12.6298L28.4222 21.0485C28.6428 21.4209 28.8144 21.8258 28.927 22.2547L33.7188 21.2687C33.814 21.0294 33.9574 20.8135 34.1397 20.6306C34.9257 19.8185 36.2157 19.8023 37.0244 20.5825L38.0879 20.3676C37.988 19.404 38.5807 18.5042 39.5049 18.2092C40.5807 17.8749 41.7237 18.4722 42.0616 19.5474C42.396 20.6225 41.7998 21.7697 40.7246 22.104C39.6489 22.4384 38.5058 21.8416 38.1715 20.7659L37.3152 20.9412C37.5898 21.3714 37.6977 21.8811 37.6136 22.3827C37.4266 23.4979 36.3741 24.2474 35.263 24.0558C34.1519 23.8729 33.4036 22.821 33.5905 21.7139L29.0128 22.6543C29.058 22.9175 29.0829 23.1875 29.0829 23.4635C29.0829 23.6903 29.066 23.9129 29.0352 24.1312C29.0352 24.1312 28.9261 24.9131 28.5479 25.6518Z" fill="#DA4895"/>
</svg>
