<svg width="46" height="45" viewBox="0 0 46 45" fill="none" xmlns="http://www.w3.org/2000/svg">
<path d="M45.0649 31.625L29.2978 22.9158L43.7606 12.6818C43.9736 12.5308 44.042 12.2462 43.921 12.0149C43.7995 11.7841 43.5256 11.6784 43.2813 11.7679L24.4639 18.6429L13.5556 0.966848C13.4186 0.744728 13.1386 0.659336 12.9004 0.765059C12.6623 0.871291 12.5396 1.13763 12.6135 1.38771L17.6526 18.4366L1.21525 15.4041C0.96314 15.3528 0.715606 15.5007 0.630214 15.7416C0.544568 15.9831 0.646733 16.2504 0.871395 16.3729L14.9666 24.0687L2.20564 34.2315C2.00563 34.3906 1.95099 34.6716 2.07654 34.8943C2.17133 35.062 2.34669 35.1591 2.53018 35.1591C2.59041 35.1591 2.65166 35.1484 2.71087 35.1266L21.5236 28.1482L32.4506 43.7943C32.5507 43.9377 32.7121 44.0169 32.8775 44.0169C32.8808 44.0169 32.8846 44.0175 32.8877 44.0169C33.1751 44.0169 33.4082 43.7841 33.4082 43.4965C33.4082 43.408 33.3861 43.3247 33.3472 43.252L28.991 28.7761L44.7459 32.6172C44.7871 32.6273 44.8285 32.6319 44.8694 32.6319C44.873 32.6319 44.8753 32.6324 44.8796 32.6319C45.1671 32.6319 45.4001 32.3991 45.4001 32.1114C45.4001 31.8893 45.2608 31.6997 45.0649 31.625ZM39.978 14.0831L28.2857 22.3568L25.9645 21.0747L25.022 19.5474L39.978 14.0831ZM21.1482 25.7926L20.7392 25.2069L19.6854 21.6415L20.0202 21.3749L22.6294 20.4217L25.2216 21.8535L26.3692 23.713L22.8456 26.2064L21.1482 25.7926ZM19.7241 25.4454L19.609 25.4173L16.8417 23.9063L18.8067 22.3414L19.7241 25.4454ZM19.3671 20.5644L19.1316 19.768L20.6285 20.0443L19.5836 20.426C19.531 20.4453 19.4819 20.4727 19.438 20.5078L19.3671 20.5644ZM23.9251 19.9482L24.0237 19.9122L24.1083 20.0495L23.9251 19.9482ZM26.6947 24.7578L27.4699 27.3338L24.1859 26.5331L26.6947 24.7578ZM27.2208 23.1105L27.0779 22.8788L27.342 23.0247L27.2208 23.1105ZM14.7165 4.83031L23.4655 19.0077L22.5539 19.3408L18.8007 18.6484L14.7165 4.83031ZM4.22531 17.0179L17.9835 19.5562L18.4883 21.2641L15.8503 23.3651L4.22531 17.0179ZM5.39868 33.0192L15.958 24.6099L19.1701 26.3638C19.2098 26.3851 19.2522 26.4019 19.2962 26.4125L20.5199 26.7109L20.9079 27.2666L5.39868 33.0192ZM31.4416 40.5316L22.499 27.7268L23.0596 27.3301L27.8178 28.4902L31.4416 40.5316ZM28.643 27.6198L27.591 24.1237L28.354 23.5837L41.206 30.6826L28.643 27.6198Z" fill="#609CF6"/>
</svg>
