<svg width="46" height="46" viewBox="0 0 46 46" fill="none" xmlns="http://www.w3.org/2000/svg">
<path d="M45.4001 23C45.4001 20.9212 44.3696 19.0482 42.7323 17.7136C43.483 15.739 43.4396 13.6013 42.4007 11.8001C41.3601 9.99949 39.5307 8.89295 37.4453 8.55602C37.1087 6.47065 36.0024 4.64093 34.2019 3.60119C32.4011 2.56228 30.2631 2.51885 28.2884 3.26933C26.9536 1.63144 25.08 0.599976 23.0001 0.599976C20.9202 0.599976 19.0474 1.63144 17.7133 3.26933C15.7393 2.51885 13.6021 2.56228 11.8015 3.60119C9.99956 4.64093 8.89276 6.47065 8.55573 8.55602C6.47015 8.89295 4.64043 9.99928 3.59986 11.8001C2.5607 13.601 2.51752 15.7393 3.26852 17.714C1.63115 19.0484 0.600098 20.9214 0.600098 23C0.600098 25.0801 1.63125 26.9533 3.26873 28.2876C2.51752 30.2622 2.56059 32.4002 3.59986 34.202C4.64043 36.0025 6.47 37.1088 8.55542 37.446C8.89204 39.5314 9.99811 41.3609 11.7987 42.4008C13.6009 43.44 15.7391 43.4838 17.7136 42.7329C19.0476 44.3706 20.9204 45.4018 23.0001 45.4018C25.0796 45.4018 26.953 44.3709 28.2877 42.7335C30.262 43.4838 32.3998 43.44 34.2019 42.4008C36.0025 41.3609 37.1087 39.5314 37.4454 37.446C39.5307 37.1088 41.3601 36.0025 42.4007 34.202C43.4397 32.4005 43.4829 30.2625 42.732 28.2882C44.3694 26.9536 45.4001 25.0803 45.4001 23ZM40.496 12.9001C41.1284 13.9962 41.2595 15.2747 40.9325 16.581C39.6994 16.0004 38.2867 15.6675 36.789 15.6675C36.3938 15.6675 36.011 15.687 35.63 15.709C35.8396 15.39 36.0477 15.0682 36.2453 14.7259C36.9939 13.4294 37.4122 12.0396 37.5258 10.6809C38.8212 11.0511 39.863 11.8038 40.496 12.9001ZM35.5823 35.5835C33.9263 35.588 32.0444 35.0907 30.1393 34.0424C29.7458 31.3207 28.7741 29.0537 27.4276 27.4284C29.0536 28.7758 31.321 29.7461 34.0424 30.1388C35.0904 32.045 35.5873 33.9273 35.5823 35.5835ZM27.6051 40.1889C26.1684 39.3648 24.787 37.9926 23.6614 36.1313C24.6813 33.5781 24.9743 31.13 24.6203 29.0486C25.3546 31.0277 26.8327 33.0021 28.9925 34.7036C28.9474 36.8787 28.437 38.7572 27.6051 40.1889ZM17.0082 34.7033C19.1677 33.0018 20.6458 31.0277 21.3808 29.0486C21.026 31.13 21.3189 33.5781 22.3387 36.131C21.2132 37.9924 19.832 39.3648 18.3954 40.1889C17.5636 38.7569 17.0533 36.8784 17.0082 34.7033ZM10.4185 10.4185C12.0749 10.414 13.9575 10.9113 15.8633 11.9596C16.2561 14.6813 17.2262 16.9484 18.5731 18.5734C16.9474 17.2265 14.6802 16.2557 11.9596 15.8624C10.9112 13.9568 10.4139 12.0744 10.4185 10.4185ZM18.3958 5.81345C19.8323 6.63756 21.2133 8.00937 22.3388 9.87074C21.3189 12.424 21.026 14.872 21.3808 16.9534C20.6458 14.9743 19.1677 13.0005 17.0082 11.2992C17.0533 9.12418 17.5637 7.24533 18.3958 5.81345ZM16.9534 21.3806C14.8717 21.0274 12.4234 21.3195 9.86978 22.3399C8.00835 21.2138 6.63644 19.8323 5.81259 18.3958C7.24422 17.564 9.12286 17.0538 11.298 17.0087C12.9989 19.1687 14.9731 20.6457 16.9534 21.3806ZM16.9534 24.6212C14.973 25.3561 12.9985 26.8342 11.2976 28.9942C9.12255 28.9491 7.24406 28.4383 5.81243 27.6062C6.63613 26.17 8.00784 24.7888 9.8689 23.6627C12.4228 24.6826 14.8714 24.9753 16.9534 24.6212ZM11.9606 30.1386C14.6808 29.7456 16.9476 28.7752 18.5731 27.4284C17.2263 29.0534 16.2562 31.3202 15.8634 34.0414C13.9576 35.0905 12.0749 35.588 10.4185 35.5835C10.4139 33.9273 10.9116 32.0447 11.9606 30.1386ZM21.6318 28.1135C20.8216 29.9781 19.1835 31.8816 17.0372 33.3302C17.2187 30.7461 18.0468 28.3759 19.2591 26.7432C17.6246 27.9541 15.2552 28.7836 12.6711 28.9652C14.1195 26.8176 16.0223 25.1791 17.8876 24.3711C15.8678 24.604 13.4011 24.1367 11.0728 23.0012C13.4011 21.8662 15.8678 21.3981 17.8876 21.6317C16.0223 20.8229 14.1195 19.185 12.671 17.0376C15.2552 17.219 17.6246 18.0476 19.2591 19.2593C18.0466 17.6256 17.2185 15.2546 17.0372 12.671C19.1835 14.1204 20.8215 16.0239 21.6318 17.8893C21.3981 15.8696 21.8645 13.4021 23.0002 11.0736C24.1363 13.4021 24.6023 15.8696 24.3693 17.8893C25.1787 16.0239 26.8171 14.1202 28.9635 12.671C28.7822 15.2546 27.954 17.6256 26.7416 19.2593C28.3761 18.0476 30.748 17.219 33.3311 17.0376C31.8808 19.185 29.9784 20.8229 28.1126 21.6317C30.1324 21.3981 32.5991 21.8662 34.9275 23.0012C32.5991 24.1367 30.1324 24.604 28.1126 24.3711C29.9783 25.1791 31.8808 26.8176 33.331 28.9652C30.7479 28.7836 28.3761 27.9544 26.7416 26.7432C27.9539 28.3759 28.782 30.7461 28.9635 33.3302C26.817 31.8816 25.1787 29.9781 24.3693 28.1135C24.6023 30.1329 24.1363 32.6001 23.0002 34.9285C21.8645 32.6001 21.3981 30.1329 21.6318 28.1135ZM28.9925 11.2989C26.8327 13.0002 25.3546 14.974 24.6203 16.9534C24.9743 14.872 24.6814 12.424 23.6615 9.87074C24.7881 8.00988 26.1691 6.63808 27.6051 5.81396C28.437 7.24565 28.9474 9.12418 28.9925 11.2989ZM34.0434 15.8622C31.3215 16.2552 29.0537 17.2259 27.4276 18.5734C28.7742 16.9481 29.7459 14.6805 30.1394 11.9586C32.0444 10.911 33.9263 10.414 35.5823 10.4185C35.5874 12.0744 35.0907 13.9565 34.0434 15.8622ZM29.0468 24.6212C31.1291 24.9753 33.5777 24.6826 36.1315 23.6627C37.9926 24.7888 39.3643 26.1697 40.1882 27.6062C38.7566 28.4383 36.8782 28.9489 34.7032 28.9942C33.0023 26.8342 31.0275 25.3561 29.0468 24.6212ZM29.0468 21.3806C31.0274 20.6457 33.002 19.1687 34.7028 17.0087C36.8778 17.0538 38.7564 17.5642 40.1881 18.3961C39.364 19.8323 37.9921 21.2138 36.1307 22.3396C33.5771 21.3195 31.1288 21.0274 29.0468 21.3806ZM33.1 5.5061C34.1962 6.13879 34.949 7.18049 35.3194 8.47556C33.961 8.58911 32.5712 9.00722 31.2741 9.75564C30.9325 9.95316 30.6113 10.1612 30.2929 10.3705C30.315 9.98956 30.3345 9.60713 30.3345 9.21198C30.3345 7.71484 30.0016 6.30198 29.4206 5.06875C30.7266 4.74207 32.0043 4.8732 33.1 5.5061ZM23.0001 2.80013C24.2656 2.80013 25.4382 3.32569 26.4062 4.26243C25.2866 5.03959 24.2922 6.09618 23.5438 7.39239C23.3462 7.73521 23.1716 8.07669 23.0001 8.41765C22.8287 8.07669 22.6541 7.73521 22.4564 7.39239C21.7079 6.09618 20.7137 5.03928 19.5944 4.26212C20.5623 3.32569 21.7347 2.80013 23.0001 2.80013ZM12.9002 5.5061C13.9964 4.8732 15.2749 4.74207 16.5817 5.06906C16.001 6.30219 15.6685 7.71484 15.6685 9.21198C15.6685 9.60765 15.688 9.99091 15.71 10.3721C15.3908 10.1624 15.0686 9.95368 14.726 9.75564C13.4292 9.00722 12.0395 8.58911 10.6811 8.47556C11.0512 7.18049 11.804 6.13879 12.9002 5.5061ZM5.50689 12.9001C6.13902 11.8038 7.1802 11.0511 8.47517 10.6812C8.58872 12.0396 9.00688 13.4294 9.75535 14.7259C9.95292 15.0682 10.1611 15.39 10.3707 15.709C9.98974 15.687 9.60684 15.6675 9.21169 15.6675C7.71465 15.6675 6.3019 16.0004 5.06872 16.5814C4.74208 15.2747 4.87368 13.9962 5.50689 12.9001ZM2.79974 23C2.79974 21.7347 3.32493 20.5625 4.261 19.5947C5.03837 20.7145 6.09507 21.7092 7.39117 22.4582C7.73368 22.6557 8.07516 22.8303 8.41633 23.0017C8.07516 23.1731 7.73368 23.3477 7.39117 23.5454C6.09532 24.2939 5.03868 25.288 4.26141 26.4075C3.32509 25.439 2.79974 24.2662 2.79974 23ZM5.50689 33.1016C4.87363 32.0055 4.74208 30.7268 5.06888 29.4198C6.302 30.0009 7.71465 30.3335 9.21169 30.3335C9.6071 30.3335 9.9902 30.314 10.3713 30.2919C10.1616 30.6112 9.95313 30.9333 9.75535 31.2759C9.00688 32.5727 8.58872 33.9625 8.47507 35.3209C7.18015 34.9507 6.13902 34.198 5.50689 33.1016ZM12.9002 40.4952C11.804 39.8624 11.0513 38.8213 10.6812 37.5268C12.0395 37.4132 13.4292 36.9953 14.726 36.2471C15.0686 36.0492 15.3908 35.8405 15.71 35.6307C15.688 36.0116 15.6685 36.3945 15.6685 36.7898C15.6685 38.287 16.0011 39.6995 16.5817 40.9329C15.2749 41.2599 13.9964 41.1285 12.9002 40.4952ZM23.0001 43.2026C21.7346 43.2026 20.5621 42.6771 19.5941 41.7404C20.7136 40.963 21.7079 39.9061 22.4564 38.6094C22.6541 38.2668 22.8287 37.9253 23.0001 37.5842C23.1716 37.9253 23.3462 38.2668 23.5438 38.6094C24.2923 39.9061 25.2867 40.963 26.4062 41.7404C25.4382 42.6771 24.2656 43.2026 23.0001 43.2026ZM33.1 40.4952C32.0045 41.1283 30.7266 41.2599 29.4204 40.9335C30.0016 39.7001 30.3345 38.2872 30.3345 36.7898C30.3345 36.3952 30.315 36.0127 30.2929 35.6323C30.6113 35.8415 30.9325 36.0497 31.2741 36.2471C32.5712 36.9953 33.961 37.4132 35.3193 37.5268C34.949 38.8213 34.1962 39.8624 33.1 40.4952ZM40.496 33.1016C39.863 34.198 38.8212 34.951 37.5258 35.3211C37.4121 33.9625 36.9939 32.5727 36.2453 31.2759C36.0475 30.9333 35.8391 30.6112 35.6294 30.2919C36.0105 30.314 36.3936 30.3335 36.789 30.3335C38.2866 30.3335 39.6993 30.0009 40.9324 29.4201C41.2595 30.7271 41.1284 32.0055 40.496 33.1016ZM41.7391 26.4071C40.9619 25.288 39.9053 24.2939 38.6094 23.5454C38.2669 23.3477 37.9255 23.1731 37.5843 23.0017C37.9255 22.8303 38.2669 22.6557 38.6094 22.4582C39.9055 21.7092 40.9623 20.7145 41.7396 19.5949C42.6757 20.5625 43.2009 21.7347 43.2009 23C43.2009 24.2662 42.6755 25.439 41.7391 26.4071Z" fill="#EA9D59"/>
</svg>
