<svg width="45" height="46" viewBox="0 0 45 46" fill="none" xmlns="http://www.w3.org/2000/svg">
<path d="M14.5868 19.909C12.1705 21.8716 16.2585 24.8773 17.2487 23.0706C19.1389 20.7673 15.5603 18.1329 14.5868 19.909Z" fill="#58E780"/>
<path d="M13.2541 14.5347C11.0573 16.4231 14.8407 19.1598 15.7736 17.4578C17.5546 15.3163 14.1767 12.8515 13.2541 14.5347Z" fill="#58E780"/>
<path d="M18.4609 15.8012C15.7444 17.9399 20.2732 21.2729 21.3418 19.3234C23.422 16.7685 19.5013 13.8917 18.4609 15.8012Z" fill="#58E780"/>
<path d="M17.2716 10.8373C15.1866 12.6599 18.8034 15.2832 19.7125 13.629C21.4205 11.5761 18.1749 9.19356 17.2716 10.8373Z" fill="#58E780"/>
<path d="M19.0871 8.30774C20.5683 6.61158 17.7415 4.58169 16.9518 6.02126C15.3188 7.61782 18.2942 9.75433 19.0871 8.30774Z" fill="#58E780"/>
<path d="M19.1113 3.55864C19.7796 2.37816 18.147 0.946266 17.4978 2.12356C16.4249 3.16115 18.4906 4.69011 19.1113 3.55864Z" fill="#58E780"/>
<path d="M23.5878 5.40134C24.5074 4.13599 22.5469 2.67015 21.8982 3.84455C20.8115 5.03995 22.9554 6.56215 23.5878 5.40134Z" fill="#58E780"/>
<path d="M24.4634 1.92485C24.7925 1.07492 23.7028 0.00854344 23.1573 0.996927C22.9339 1.77451 23.8773 2.98771 24.4634 1.92485Z" fill="#58E780"/>
<path d="M23.8526 10.2306C25.4225 8.45612 22.4564 6.33564 21.6442 7.8175C19.9035 9.47799 23.0332 11.7243 23.8526 10.2306Z" fill="#58E780"/>
<path d="M27.4438 7.69706C28.5243 6.27093 26.2986 4.60943 25.6001 5.88379C24.3029 7.19178 26.7471 8.9681 27.4438 7.69706Z" fill="#58E780"/>
<path d="M29.0918 4.1846C30.0091 2.91876 28.0482 1.44327 27.3995 2.6186C26.3036 3.81488 28.4591 5.34592 29.0918 4.1846Z" fill="#58E780"/>
<path d="M13.925 5.97667C14.5364 4.85443 12.9935 3.5048 12.3677 4.64361C11.4062 5.67591 13.3338 7.0543 13.925 5.97667Z" fill="#58E780"/>
<path d="M9.86087 9.52813C10.9263 8.11082 8.71669 6.4519 8.02088 7.72024C6.7165 9.02746 9.16745 10.7933 9.86087 9.52813Z" fill="#58E780"/>
<path d="M6.51046 14.1775C7.7716 12.6924 5.29877 10.9158 4.58545 12.2262C3.21487 13.6381 5.78858 15.4945 6.51046 14.1775Z" fill="#58E780"/>
<path d="M3.82803 17.9563C4.43282 16.8436 2.90764 15.501 2.28375 16.6325C1.3299 17.655 3.24342 19.0228 3.82803 17.9563Z" fill="#58E780"/>
<path d="M8.84051 13.1716C7.25791 14.7114 10.1412 16.7834 10.9166 15.3687C12.3407 13.7363 9.61696 11.7635 8.84051 13.1716Z" fill="#58E780"/>
<path d="M12.6895 9.38987C11.0473 10.9898 14.031 13.1233 14.8245 11.6768C16.3058 9.98144 13.4818 7.9482 12.6895 9.38987Z" fill="#58E780"/>
<path d="M9.81832 18.6003C8.06435 20.2669 11.217 22.5139 12.0295 21.0226C13.598 19.2446 10.6316 17.1167 9.81832 18.6003Z" fill="#58E780"/>
<path d="M5.80062 17.5207C4.5567 18.7974 6.92786 20.508 7.60249 19.2687C8.63459 17.8854 6.47733 16.2775 5.80062 17.5207Z" fill="#58E780"/>
<path d="M2.69161 21.4178C1.60647 22.6069 3.74472 24.1362 4.38007 22.977C5.29406 21.7153 3.33642 20.2484 2.69161 21.4178Z" fill="#58E780"/>
<path d="M2.33918 25.6958C2.82564 24.7107 1.48249 23.5391 0.917744 24.5757C0.155507 25.5348 1.80516 26.6701 2.33918 25.6958Z" fill="#58E780"/>
<path d="M6.53341 23.1113C5.22701 24.417 7.67764 26.1901 8.37297 24.9215C9.43565 23.5071 7.23442 21.84 6.53341 23.1113Z" fill="#58E780"/>
<path d="M5.42313 28.2976C6.39002 26.985 4.3474 25.4621 3.68837 26.6645C2.54516 27.8876 4.7641 29.4927 5.42313 28.2976Z" fill="#58E780"/>
<path d="M13.258 26.8446C14.9316 24.8434 11.7469 22.5213 10.8676 24.1255C8.84579 25.9045 12.3691 28.4663 13.258 26.8446Z" fill="#58E780"/>
<path d="M22.6534 12.1967C20.2451 14.1519 24.3197 17.1419 25.3056 15.3445C27.1878 13.0495 23.6225 10.4286 22.6534 12.1967Z" fill="#58E780"/>
<path d="M26.9588 9.66537C25.2114 11.3296 28.3495 13.5829 29.1704 12.0854C30.7489 10.304 27.7654 8.18476 26.9588 9.66537Z" fill="#58E780"/>
<path d="M32.5431 8.6008C34.0372 6.89608 31.1953 4.85314 30.4051 6.29479C28.7523 7.89683 31.7472 10.0529 32.5431 8.6008Z" fill="#58E780"/>
<path d="M34.3213 4.77633C34.7969 3.80515 33.4848 2.66648 32.9191 3.69151C32.19 4.6368 33.8009 5.73066 34.3213 4.77633Z" fill="#58E780"/>
<path d="M4.87259 35.7489C4.49386 35.8703 5.39341 37.5692 6.02046 36.4172C6.04889 35.8807 5.43173 34.7288 4.87259 35.7489Z" fill="#58E780"/>
<path d="M2.05348 30.2331C1.82039 31.0194 2.78317 32.2351 3.3624 31.1709C3.69125 30.3201 2.59786 29.2398 2.05348 30.2331Z" fill="#58E780"/>
<path d="M9.79044 30.5044C11.1164 28.9595 8.54021 27.0953 7.79714 28.451C6.34239 29.9177 9.04509 31.8643 9.79044 30.5044Z" fill="#58E780"/>
<path d="M5.28265 32.0422C4.20004 33.2315 6.33556 34.7597 6.97039 33.6014C7.89286 32.3352 5.91794 30.8751 5.28265 32.0422Z" fill="#58E780"/>
<path d="M14.6086 31.8417C16.092 30.1453 13.2627 28.11 12.4754 29.5465C10.8307 31.1438 13.8187 33.2828 14.6086 31.8417Z" fill="#58E780"/>
<path d="M15.7756 25.4457C13.5904 27.3299 17.3573 30.067 18.2917 28.3622C20.0774 26.2255 16.6972 23.7644 15.7756 25.4457Z" fill="#58E780"/>
<path d="M22.3654 24.6604C24.2363 22.3962 20.7008 19.8117 19.7422 21.5605C17.3776 23.4934 21.3873 26.4448 22.3654 24.6604Z" fill="#58E780"/>
<path d="M26.5988 20.738C28.5597 18.3509 24.8579 15.6294 23.8605 17.4507C21.3346 19.4749 25.5783 22.5998 26.5988 20.738Z" fill="#58E780"/>
<path d="M30.777 16.8353C32.4873 14.7884 29.2385 12.4153 28.3407 14.0504C26.2624 15.869 29.8735 18.4837 30.777 16.8353Z" fill="#58E780"/>
<path d="M34.5066 13.1367C36.074 11.3648 33.1155 9.23519 32.2995 10.7227C30.5542 12.3858 33.6882 14.6297 34.5066 13.1367Z" fill="#58E780"/>
<path d="M37.2006 9.09999C37.9187 7.86164 36.1947 6.36863 35.5343 7.58086C34.3914 8.65932 36.5635 10.2695 37.2006 9.09999Z" fill="#58E780"/>
<path d="M41.3002 11.5108C42.0235 10.2655 40.2859 8.76687 39.6284 9.981C38.4746 11.0607 40.6537 12.6892 41.3002 11.5108Z" fill="#58E780"/>
<path d="M37.143 12.6029C35.6866 14.0694 38.3871 16.0097 39.1309 14.6516C40.4574 13.1074 37.8849 11.2495 37.143 12.6029Z" fill="#58E780"/>
<path d="M36.3541 18.3408C37.9535 16.5338 34.9229 14.3924 34.1154 15.8848C32.3386 17.5689 35.5214 19.8588 36.3541 18.3408Z" fill="#58E780"/>
<path d="M32.0686 22.0614C33.8454 19.9226 30.464 17.485 29.5575 19.159C27.3784 21.0404 31.1383 23.7602 32.0686 22.0614Z" fill="#58E780"/>
<path d="M27.5136 25.8743C29.467 23.4972 25.7704 20.8142 24.7942 22.6168C22.2987 24.6268 26.5048 27.7165 27.5136 25.8743Z" fill="#58E780"/>
<path d="M23.8344 30.5368C24.6886 28.9719 24.8284 28.6178 23.8928 27.0756C23.5062 26.4383 21.3146 26.1131 20.8816 26.9078C18.0823 29.1111 22.7432 32.5276 23.8344 30.5368Z" fill="#58E780"/>
<path d="M19.1144 32.6028C20.5989 30.9011 17.7685 28.8446 16.9705 30.2917C15.3036 31.9039 18.3304 34.0518 19.1144 32.6028Z" fill="#58E780"/>
<path d="M9.76958 33.4525C8.41773 34.8548 10.9661 36.6832 11.6823 35.3763C12.9193 33.9108 10.4855 32.1464 9.76958 33.4525Z" fill="#58E780"/>
<path d="M7.88794 37.0762C6.93688 38.0992 8.85188 39.4653 9.4339 38.3961C10.0338 37.2846 8.50183 35.9484 7.88794 37.0762Z" fill="#58E780"/>
<path d="M17.2253 36.5751C18.8674 34.609 15.7379 32.3215 14.8657 33.9129C12.8959 35.6662 16.3489 38.1741 17.2253 36.5751Z" fill="#58E780"/>
<path d="M20.5033 32.864C18.0596 34.8475 22.191 37.8889 23.1915 36.0635C25.1137 33.7203 21.4706 31.0778 20.5033 32.864Z" fill="#58E780"/>
<path d="M28.5961 30.1368C30.1663 28.2589 27.1568 26.057 26.313 27.5966C24.4331 29.2864 27.7437 31.6919 28.5961 30.1368Z" fill="#58E780"/>
<path d="M25.7012 32.2381C23.4852 34.1437 27.3048 36.8999 28.2379 35.1871C30.0441 33.0205 26.6157 30.5493 25.7012 32.2381Z" fill="#58E780"/>
<path d="M32.8829 27.319C34.5384 25.329 31.3602 23.0678 30.5135 24.6475C28.5264 26.4103 32.0077 28.924 32.8829 27.319Z" fill="#58E780"/>
<path d="M34.9652 21.0947C32.8581 22.9334 36.5131 25.5647 37.4179 23.9024C39.139 21.8303 35.8626 19.4474 34.9652 21.0947Z" fill="#58E780"/>
<path d="M41.1624 19.9198C42.4909 18.3719 39.9154 16.5098 39.172 17.866C37.71 19.3371 40.4231 21.2768 41.1624 19.9198Z" fill="#58E780"/>
<path d="M43.1574 16.2039C44.0689 14.9429 42.1124 13.4806 41.473 14.6472C40.3894 15.8357 42.5275 17.3601 43.1574 16.2039Z" fill="#58E780"/>
<path d="M42.1667 25.8918C43.821 23.9021 40.6505 21.6208 39.7939 23.2093C37.7962 24.9763 41.2885 27.4939 42.1667 25.8918Z" fill="#58E780"/>
<path d="M42.8963 20.736C42.4685 20.8227 43.4221 22.7552 44.1031 21.5052C44.1506 20.9513 43.4846 19.6431 42.8963 20.736Z" fill="#58E780"/>
<path d="M40.8358 28.4506C39.3348 29.9461 42.1016 31.942 42.8587 30.5607C44.2404 28.9687 41.5691 27.08 40.8358 28.4506Z" fill="#58E780"/>
<path d="M35.2343 26.4815C32.7894 28.4636 36.9343 31.4815 37.9137 29.6712C39.832 27.3297 36.1878 24.7117 35.2343 26.4815Z" fill="#58E780"/>
<path d="M30.6665 29.9837C28.7782 31.6805 32.1143 34.0738 32.9539 32.5233C34.5305 30.6316 31.4967 28.4507 30.6665 29.9837Z" fill="#58E780"/>
<path d="M29.7175 35.0709C27.6085 36.9047 31.2594 39.5604 32.1727 37.8941C33.9087 35.8192 30.6106 33.4315 29.7175 35.0709Z" fill="#58E780"/>
<path d="M35.0327 32.2788C33.3851 33.8826 36.3819 36.026 37.1709 34.5778C38.6699 32.8744 35.822 30.8389 35.0327 32.2788Z" fill="#58E780"/>
<path d="M39.7284 32.3835C38.6484 33.4285 40.7339 34.9655 41.3511 33.8269C42.0253 32.6337 40.3643 31.2045 39.7284 32.3835Z" fill="#58E780"/>
<path d="M38.0804 35.9006C37.6611 35.9878 38.6066 37.9035 39.2772 36.6564C39.3226 36.105 38.6698 34.8177 38.0804 35.9006Z" fill="#58E780"/>
<path d="M34.2356 37.152C32.3552 38.8456 35.6761 41.2453 36.5253 39.6946C38.0934 37.806 35.0746 35.6121 34.2356 37.152Z" fill="#58E780"/>
<path d="M29.2346 40.4765C27.6643 42.0137 30.5402 44.0612 31.3 42.6569C32.7205 41.0291 29.9973 39.0765 29.2346 40.4765Z" fill="#58E780"/>
<path d="M24.0954 37.2061C22.0996 38.9711 25.5928 41.5002 26.4711 39.8881C28.1146 37.9122 24.9681 35.6139 24.0954 37.2061Z" fill="#58E780"/>
<path d="M24.5566 41.6778C23.2351 43.0591 25.7375 44.8533 26.4448 43.563C27.6652 42.1172 25.252 40.3935 24.5566 41.6778Z" fill="#58E780"/>
<path d="M21.195 43.689C20.2436 44.7083 22.1561 46.0801 22.7408 45.0133C23.3473 43.8971 21.7995 42.5659 21.195 43.689Z" fill="#58E780"/>
<path d="M18.7077 37.7384C16.7568 39.4754 20.1817 41.9463 21.0433 40.3649C22.6625 38.4207 19.5638 36.1671 18.7077 37.7384Z" fill="#58E780"/>
<path d="M13.2457 37.9096C12.0557 39.155 14.3448 40.8025 15.0052 39.5904C15.995 38.2479 13.9037 36.6947 13.2457 37.9096Z" fill="#58E780"/>
<path d="M11.9965 41.1245C11.1172 42.1056 12.9292 43.3762 13.4809 42.3513C14.0324 41.2947 12.5791 40.0411 11.9965 41.1245Z" fill="#58E780"/>
<path d="M16.5887 41.7388C15.4419 42.9669 17.6774 44.5671 18.3242 43.3725C19.2952 42.0504 17.228 40.5426 16.5887 41.7388Z" fill="#58E780"/>
</svg>
