<svg width="39" height="46" viewBox="0 0 39 46" fill="none" xmlns="http://www.w3.org/2000/svg">
<path d="M20.4336 26.5458C22.3483 26.5458 23.9005 24.9936 23.9005 23.0789C23.9005 21.1642 22.3483 19.612 20.4336 19.612C18.5189 19.612 16.9667 21.1642 16.9667 23.0789C16.9667 24.9936 18.5189 26.5458 20.4336 26.5458Z" fill="#8E52FF"/>
<path d="M35.9337 4.48856C35.8238 3.59792 36.4556 2.15531 37.3451 1.26588C38.2342 0.376863 38.9427 0.378072 38.928 1.26913C38.9138 2.16019 38.2816 3.60363 37.5171 4.49223C36.7523 5.38087 36.0436 5.37925 35.9337 4.48856Z" fill="#8E52FF"/>
<path d="M29.469 11.9208C29.0066 10.8486 29.4995 9.11126 30.5707 8.04026C31.6415 6.9693 32.7387 6.97013 33.021 8.04313C33.3031 9.11614 32.8098 10.8535 31.9197 11.924C31.0291 12.9946 29.9318 12.9934 29.469 11.9208Z" fill="#8E52FF"/>
<path d="M23.9608 18.5834C23.0526 17.3191 23.34 15.2708 24.6027 14.0081C25.8658 12.7446 27.4224 12.7462 28.0798 14.0101C28.7374 15.274 28.4499 17.3224 27.4381 18.5851C26.4256 19.8478 24.8689 19.8466 23.9608 18.5834Z" fill="#8E52FF"/>
<path d="M35.8414 41.5153C35.728 42.4027 36.3569 43.8425 37.2463 44.7323C38.135 45.6209 38.8473 45.6226 38.8363 44.7356C38.8257 43.8482 38.1968 42.408 37.4319 41.5186C36.6675 40.6292 35.9555 40.6275 35.8414 41.5153Z" fill="#8E52FF"/>
<path d="M29.4757 34.1866C29.0125 35.2568 29.5062 36.9917 30.5772 38.0631C31.648 39.1337 32.7448 39.1353 33.0269 38.0663C33.3088 36.9962 32.8154 35.2613 31.925 34.1895C31.0343 33.1185 29.9377 33.1173 29.4757 34.1866Z" fill="#8E52FF"/>
<path d="M28.5309 21.1146C27.7767 22.1852 27.7767 23.9217 28.5306 24.9935C29.2852 26.0645 30.3615 26.0661 30.935 24.996C31.5088 23.9262 31.5088 22.1901 30.935 21.1179C30.3615 20.0457 29.2848 20.0445 28.5309 21.1146Z" fill="#8E52FF"/>
<path d="M24.0343 27.5901C23.1254 28.8521 23.4132 30.8987 24.6763 32.1623C25.939 33.425 27.4956 33.4262 28.153 32.1643C28.8108 30.9028 28.523 28.8557 27.5117 27.5922C26.4991 26.3287 24.9425 26.3279 24.0343 27.5901Z" fill="#8E52FF"/>
<path d="M37.0867 11.2011C37.0065 10.4318 37.3654 9.18616 37.8874 8.41882C38.4097 7.65151 38.8228 7.65314 38.8106 8.42248C38.798 9.19224 38.4396 10.4379 38.01 11.2052C37.5805 11.9721 37.1671 11.9705 37.0867 11.2011Z" fill="#8E52FF"/>
<path d="M32.6157 18.4088C32.244 17.5181 32.4402 16.0767 33.0529 15.1877C33.6671 14.2995 34.3646 14.3007 34.6117 15.1914C34.8586 16.0816 34.6626 17.5238 34.1737 18.4124C33.6846 19.3007 32.9869 19.299 32.6157 18.4088Z" fill="#8E52FF"/>
<path d="M37.9275 16.9434C37.8775 16.3223 38.036 15.3173 38.2813 14.6985C38.5267 14.0798 38.7181 14.0814 38.7073 14.7026C38.6973 15.3238 38.5389 16.3284 38.3541 16.9471C38.1687 17.5659 37.9778 17.5646 37.9275 16.9434Z" fill="#8E52FF"/>
<path d="M33.0583 30.9346C32.4444 30.0451 32.2482 28.6037 32.6199 27.7155C32.9907 26.8277 33.6878 26.8293 34.1775 27.7188C34.6657 28.6094 34.8624 30.0504 34.6157 30.9386C34.3686 31.826 33.6713 31.8244 33.0583 30.9346Z" fill="#8E52FF"/>
<path d="M37.0258 34.8293C36.9422 35.5962 37.2979 36.8402 37.8202 37.6087C38.3427 38.3772 38.7589 38.3788 38.7491 37.6128C38.7404 36.8459 38.384 35.6019 37.9545 34.8334C37.5249 34.0648 37.1091 34.0632 37.0258 34.8293Z" fill="#8E52FF"/>
<path d="M35.3098 21.6829C34.9964 22.4498 34.9966 23.6946 35.31 24.4635C35.6234 25.2325 36.0567 25.2337 36.2767 24.4672C36.4978 23.7003 36.4976 22.4555 36.2764 21.6866C36.0559 20.9176 35.623 20.9156 35.3098 21.6829Z" fill="#8E52FF"/>
<path d="M37.8929 29.1182C37.8397 29.7365 37.9961 30.7412 38.2419 31.3616C38.4876 31.9823 38.6807 31.9839 38.673 31.3652C38.6653 30.7469 38.509 29.7427 38.3238 29.1223C38.1385 28.5015 37.9456 28.4999 37.8929 29.1182Z" fill="#8E52FF"/>
<path d="M3.95453 41.5114C4.06445 42.402 3.43266 43.8446 2.54306 44.7341C1.65404 45.6231 0.945513 45.6219 0.960185 44.7308C0.97444 43.8398 1.60661 42.3963 2.37107 41.5077C3.13592 40.6191 3.84461 40.6207 3.95453 41.5114Z" fill="#8E52FF"/>
<path d="M10.4191 34.0792C10.8815 35.1513 10.3885 36.8887 9.31737 37.9597C8.24661 39.0307 7.14935 39.0298 6.86707 37.9568C6.58496 36.8838 7.07832 35.1465 7.96838 34.0759C8.85902 33.0053 9.95624 33.0065 10.4191 34.0792Z" fill="#8E52FF"/>
<path d="M15.9274 27.4164C16.8356 28.6807 16.5482 30.7291 15.2855 31.9918C14.0224 33.2553 12.4658 33.2536 11.8084 31.9897C11.1508 30.7258 11.4384 28.6775 12.4501 27.4148C13.4627 26.1521 15.0193 26.1533 15.9274 27.4164Z" fill="#8E52FF"/>
<path d="M4.04665 4.48447C4.16002 3.59708 3.53111 2.15731 2.64168 1.26746C1.75303 0.378859 1.04071 0.377191 1.05167 1.26421C1.06226 2.1516 1.69118 3.59179 2.45606 4.48118C3.22053 5.37061 3.93248 5.37224 4.04665 4.48447Z" fill="#8E52FF"/>
<path d="M10.4124 11.8132C10.8756 10.743 10.3819 9.00811 9.3109 7.93673C8.24011 6.86615 7.1433 6.86452 6.86119 7.93348C6.57933 9.00365 7.07269 10.7385 7.96312 11.8103C8.85376 12.8813 9.9504 12.8825 10.4124 11.8132Z" fill="#8E52FF"/>
<path d="M11.3574 24.8852C12.1117 23.8147 12.1117 22.0781 11.3578 21.0063C10.6031 19.9353 9.52686 19.9337 8.9533 21.0039C8.37954 22.0736 8.37954 23.8098 8.9533 24.8819C9.52686 25.9542 10.6035 25.9554 11.3574 24.8852Z" fill="#8E52FF"/>
<path d="M15.8538 18.4098C16.7627 17.1479 16.4749 15.1012 15.2118 13.8377C13.9491 12.575 12.3925 12.5738 11.7351 13.8357C11.0773 15.0971 11.3651 17.1443 12.3764 18.4078C13.389 19.6713 14.9456 19.6721 15.8538 18.4098Z" fill="#8E52FF"/>
<path d="M2.80118 34.7988C2.88137 35.5681 2.52252 36.8137 2.00049 37.5811C1.47824 38.3484 1.06507 38.3468 1.07729 37.5774C1.08988 36.8077 1.44831 35.562 1.87794 34.7947C2.3074 34.0278 2.72077 34.0294 2.80118 34.7988Z" fill="#8E52FF"/>
<path d="M7.27245 27.5909C7.64409 28.4815 7.44789 29.9229 6.83524 30.8119C6.221 31.7001 5.52351 31.6989 5.27642 30.8082C5.02953 29.918 5.22552 28.4758 5.71442 27.5872C6.20349 26.699 6.90118 26.7006 7.27245 27.5909Z" fill="#8E52FF"/>
<path d="M1.9606 29.0563C2.01066 29.6775 1.8521 30.6825 1.60688 31.3012C1.36141 31.92 1.17008 31.9183 1.18088 31.2972C1.19084 30.676 1.34919 29.6714 1.53401 29.0526C1.71942 28.4339 1.91033 28.4351 1.9606 29.0563Z" fill="#8E52FF"/>
<path d="M6.82993 15.0654C7.4438 15.9548 7.64 17.3962 7.26836 18.2845C6.8975 19.1723 6.20044 19.1706 5.71074 18.2812C5.22247 17.3906 5.02585 15.9495 5.27253 15.0613C5.51963 14.174 6.2169 14.1756 6.82993 15.0654Z" fill="#8E52FF"/>
<path d="M2.86206 11.1706C2.94572 10.4037 2.58995 9.15968 2.06766 8.39112C1.54521 7.62261 1.129 7.62099 1.13876 8.38708C1.14751 9.15396 1.5039 10.398 1.93336 11.1665C2.36299 11.935 2.77882 11.9366 2.86206 11.1706Z" fill="#8E52FF"/>
<path d="M4.57821 24.3168C4.89163 23.5499 4.89142 22.3051 4.578 21.5362C4.26454 20.7672 3.83125 20.766 3.61124 21.5325C3.3902 22.2994 3.39041 23.5442 3.61162 24.3131C3.83204 25.0821 4.26496 25.0841 4.57821 24.3168Z" fill="#8E52FF"/>
<path d="M1.99507 16.8816C2.04822 16.2632 1.89191 15.2586 1.64602 14.6382C1.40038 14.0175 1.20722 14.0158 1.21493 14.6345C1.22269 15.2529 1.379 16.2571 1.5642 16.8775C1.74944 17.4983 1.94234 17.4999 1.99507 16.8816Z" fill="#8E52FF"/>
</svg>
