<svg width="615" height="615" viewBox="0 0 615 615" fill="none" xmlns="http://www.w3.org/2000/svg">
<g opacity="0.1">
<path d="M296.078 22.3222C290.455 17.5765 284.306 13.3581 277.804 10.0186C265.153 3.51528 250.92 0 235.984 0C210.506 0 187.487 10.3701 170.794 27.0677C159.021 38.8439 150.411 53.784 146.37 70.6574C143.383 83.1366 144.086 100.889 139.517 111.962C136.881 118.114 133.191 123.738 128.447 128.308C123.879 132.878 118.256 136.745 112.281 139.205C101.563 143.775 86.2757 143.072 74.5028 145.533C56.2286 149.224 39.8871 158.188 27.2357 170.843C10.3671 187.365 0 210.39 0 235.876C0 250.992 3.68999 265.053 10.0157 277.708C14.4086 286.496 20.2071 294.405 27.06 301.26C61.8514 335.886 100.86 316.903 127.568 342.565C134.948 349.771 140.22 359.262 142.328 369.808C143.91 378.245 143.558 386.682 144.964 395.294C148.303 415.859 158.494 433.259 172.903 446.617C209.276 480.54 265.855 479.661 300.998 444.508C336.317 409.18 337.02 352.408 302.931 316.024C290.104 302.491 273.236 292.648 254.258 288.781C243.013 286.496 236.16 287.726 226.496 285.969C217.007 284.211 208.397 279.817 201.544 273.489C192.407 265.053 186.433 253.452 185.203 240.27C183.973 226.033 188.717 212.148 198.381 201.602C204.356 194.923 212.263 190.001 221.048 187.189C232.997 183.498 238.268 185.256 250.568 183.322C262.868 181.389 269.546 179.104 280.616 172.952C303.81 160.121 320.503 137.799 326.125 111.786C333.33 77.1606 323.138 45.8746 296.078 22.3222ZM81.1799 285.617C70.8128 283.332 61.6757 277.884 54.6471 270.15C36.3728 250.113 37.0757 219.178 56.2285 199.844C62.73 193.341 70.9885 188.595 80.1257 186.31C89.2628 184.025 100.157 184.728 111.93 182.092C129.15 178.401 144.788 169.613 157.264 157.133C170.618 143.775 179.58 126.55 182.918 107.919C184.676 97.725 183.973 85.773 187.311 75.9302C189.947 68.1966 194.34 61.1661 199.963 55.5416C219.818 36.0318 251.798 36.2075 271.478 55.8931C290.807 75.2272 291.334 106.338 272.884 126.375C267.964 131.648 261.99 136.042 255.137 138.854C241.783 144.478 236.336 142.369 223.157 144.127C215.601 145.181 208.221 147.115 201.017 149.927C193.461 152.915 191.353 154.145 184.851 158.364C172.903 166.273 162.887 176.819 155.507 189.123C147.6 202.832 143.031 218.651 143.031 235.524C143.031 260.834 153.223 283.86 169.74 300.557C182.918 313.915 200.314 323.231 219.643 326.57C228.78 328.152 238.971 327.273 247.933 329.734C256.894 332.019 264.801 336.765 271.127 343.092C290.983 362.954 290.983 395.294 271.127 415.156C251.974 434.314 221.224 435.193 201.193 417.089C194.691 411.113 189.596 403.555 186.784 394.943C183.094 383.869 184.5 378.421 183.094 367.348C180.458 346.607 170.97 328.152 156.913 314.091C142.68 299.854 123.527 290.187 102.441 287.726C94.1828 286.496 89.6142 287.375 81.1799 285.617Z" fill="#313A42"/>
<path d="M592.684 295.987C597.429 290.363 601.646 284.211 604.984 277.708C611.486 265.053 615 250.816 615 235.876C615 210.39 604.633 187.365 587.94 170.667C576.167 158.891 561.232 150.279 544.363 146.236C531.887 143.248 514.14 143.951 503.07 139.381C496.92 136.745 491.297 133.054 486.729 128.308C482.16 123.738 478.294 118.114 475.834 112.138C471.266 101.416 471.793 86.1246 469.509 74.3484C465.819 56.0689 456.857 39.7228 444.206 27.0677C427.513 10.3701 404.494 0 379.016 0C363.904 0 349.847 3.69105 337.196 10.0186C328.41 14.4127 320.503 20.2129 313.65 27.0677C279.034 61.8691 298.012 100.889 272.357 127.429C265.153 134.987 255.665 140.084 245.122 142.193C236.687 143.775 228.253 143.424 219.643 144.83C199.085 148.169 181.689 158.364 168.335 172.776C134.422 209.16 135.3 265.756 170.443 300.909C205.762 336.237 262.517 336.94 298.89 302.842C312.42 290.011 322.26 273.138 326.126 254.155C328.41 243.082 327.18 236.052 328.937 226.385C330.694 216.893 335.087 208.281 341.413 201.426C349.847 192.286 361.444 186.31 374.623 185.08C388.856 183.85 402.737 188.595 413.28 198.262C419.957 204.238 424.877 212.148 427.689 220.936C431.379 232.888 429.622 238.161 431.73 250.464C433.663 262.768 435.947 269.447 442.097 280.52C454.924 303.721 477.24 320.419 503.246 326.043C537.686 333.425 569.139 323.231 592.684 295.987ZM329.464 81.0274C331.749 70.6573 337.196 61.5177 344.927 54.4871C364.959 36.2076 395.884 36.9106 415.213 56.0689C421.714 62.5722 426.459 70.8331 428.743 79.9729C431.027 89.1126 430.324 100.01 432.96 111.786C436.65 129.011 445.436 144.654 457.911 157.133C471.266 170.492 488.486 179.455 507.111 182.795C517.303 184.553 529.251 183.85 539.091 187.189C546.823 189.826 553.851 194.22 559.474 199.844C578.979 219.706 578.803 251.695 559.123 271.38C539.794 290.714 508.693 291.417 488.661 272.786C483.39 267.865 478.997 261.889 476.186 255.034C470.563 241.676 472.672 236.052 470.914 223.045C469.86 215.487 467.927 208.105 465.116 201.075C462.129 193.517 460.899 191.408 456.681 184.904C448.774 172.952 438.231 162.934 425.931 155.552C412.226 147.642 396.412 142.897 379.543 142.897C354.24 142.897 331.222 153.091 314.529 169.613C301.175 182.795 291.862 200.196 288.523 219.53C286.942 228.67 287.82 238.688 285.36 247.828C283.076 256.792 278.332 264.701 272.006 271.029C252.15 290.89 219.995 290.89 199.963 271.029C180.81 251.87 179.932 221.112 198.03 201.075C204.005 194.571 211.56 189.474 220.17 186.662C231.24 182.971 236.687 184.377 247.757 182.971C268.492 180.334 286.942 170.667 300.999 156.782C315.232 142.369 324.896 123.387 327.356 102.295C328.41 94.034 327.532 89.4641 329.464 81.0274Z" fill="#313A42"/>
<path d="M318.921 592.678C324.544 597.423 330.694 601.642 337.195 604.981C349.847 611.485 364.079 615 379.015 615C404.494 615 427.512 604.63 444.205 587.932C455.978 576.156 464.588 561.216 468.629 544.343C471.617 531.863 470.914 514.111 475.482 503.038C478.118 496.886 481.808 491.262 486.552 486.692C491.121 482.122 496.744 478.255 502.718 475.794C513.437 471.225 528.724 471.752 540.497 469.467C558.771 465.776 575.112 456.812 587.764 444.157C604.456 427.459 614.824 404.434 614.824 378.948C614.824 363.833 611.134 349.771 604.808 337.116C600.415 328.328 594.616 320.419 587.764 313.564C552.972 278.938 513.964 297.921 487.431 272.259C480.051 265.053 474.779 255.562 472.671 245.016C471.089 236.579 471.441 228.142 470.035 219.53C466.697 198.966 456.505 181.565 442.097 168.207C405.724 134.284 349.144 135.163 314.001 170.316C278.682 205.645 277.98 262.416 312.068 298.8C324.895 312.334 341.764 322.176 360.741 325.867C371.987 328.152 378.84 326.922 388.504 328.68C397.992 330.437 406.602 334.831 413.455 341.159C422.592 349.596 428.567 361.196 429.797 374.378C431.027 388.615 426.282 402.501 416.618 413.047C410.644 419.726 402.737 424.647 393.951 427.459C382.002 431.15 376.731 429.393 364.431 431.502C352.131 433.435 345.454 435.72 334.384 441.872C311.19 454.703 294.497 477.025 288.874 503.038C281.67 537.839 291.861 569.125 318.921 592.678ZM533.819 329.383C544.186 331.668 553.324 337.116 560.352 344.85C578.626 364.887 577.924 395.822 558.771 415.156C552.269 421.659 544.011 426.405 534.874 428.69C525.737 430.975 514.842 430.272 503.069 432.908C485.849 436.599 470.211 445.387 457.735 457.867C444.381 471.225 435.419 488.45 432.081 507.081C430.324 517.275 431.027 529.227 427.688 539.07C425.052 546.803 420.66 553.834 415.037 559.458C395.181 578.968 363.201 578.793 343.521 559.107C324.192 539.773 323.665 508.662 342.115 488.625C347.035 483.352 353.01 478.958 359.862 476.146C373.217 470.522 378.664 472.631 391.842 470.873C399.398 469.819 406.778 467.885 413.982 465.073C421.538 462.085 423.647 460.855 430.148 456.636C442.097 448.727 452.112 438.181 459.492 425.877C467.399 412.168 471.968 396.349 471.968 379.476C471.968 354.166 461.776 331.14 445.259 314.443C432.081 301.085 414.685 291.769 395.357 288.43C386.22 286.848 376.028 287.727 367.067 285.266C358.105 282.981 350.198 278.235 343.872 271.908C324.017 252.046 324.017 219.882 343.872 199.844C363.025 180.686 393.775 179.807 413.807 197.911C420.308 203.887 425.404 211.445 428.215 220.057C431.905 231.13 430.499 236.579 431.905 247.652C434.541 268.393 444.029 286.848 458.087 300.909C472.319 315.146 491.472 324.813 512.558 327.274C520.816 328.504 525.385 327.625 533.819 329.383Z" fill="#313A42"/>
<path d="M22.3157 319.013C17.5714 324.637 13.3543 330.789 10.0157 337.292C3.51428 349.947 0 364.184 0 379.124C0 404.61 10.3672 427.635 27.06 444.333C38.8328 456.109 53.7685 464.721 70.6371 468.764C83.1128 471.752 100.86 471.049 111.93 475.619C118.08 478.255 123.703 481.946 128.271 486.692C132.84 491.262 136.706 496.886 139.166 502.862C143.734 513.584 143.207 528.875 145.491 540.652C149.181 558.931 158.143 575.277 170.794 587.932C187.487 604.63 210.506 615 235.984 615C251.096 615 265.153 611.309 277.804 604.981C286.59 600.587 294.497 594.787 301.35 587.932C335.965 553.131 316.988 514.287 342.643 487.571C349.847 480.189 359.335 474.916 369.878 472.807C378.313 471.225 386.747 471.576 395.357 470.17C415.915 466.831 433.311 456.636 446.665 442.224C480.578 405.84 479.7 349.244 444.557 314.091C409.238 278.763 352.483 278.06 316.11 312.158C302.58 324.989 292.74 341.862 288.874 360.845C286.59 372.094 287.82 378.948 286.063 388.615C284.305 398.107 279.913 406.719 273.587 413.574C265.153 422.714 253.556 428.69 240.377 429.92C226.144 431.15 212.263 426.405 201.72 416.738C195.043 410.762 190.123 402.852 187.311 394.064C183.621 382.112 185.378 376.839 183.27 364.536C181.337 352.232 179.053 345.553 172.903 334.48C160.076 311.279 137.76 294.582 111.754 288.957C77.3142 281.575 45.8614 291.769 22.3157 319.013ZM285.535 533.973C283.251 544.343 277.804 553.482 270.073 560.513C250.041 578.792 219.116 578.089 199.787 558.931C193.286 552.428 188.541 544.167 186.257 535.027C183.973 525.887 184.676 514.99 182.04 503.214C178.35 485.989 169.564 470.346 157.088 457.867C143.734 444.509 126.514 435.545 107.888 432.205C97.6971 430.447 85.7485 431.15 75.9085 427.811C68.1771 425.174 61.1485 420.78 55.5257 415.156C36.0214 395.295 36.1971 363.305 55.8771 343.62C75.2057 324.286 106.307 323.758 126.338 342.038C131.61 346.959 136.003 352.935 138.814 359.79C144.437 373.148 142.328 378.597 144.086 391.779C145.14 399.337 147.073 406.719 149.884 413.75C152.871 421.308 154.101 423.417 158.318 429.92C166.226 441.872 176.768 451.891 189.068 459.273C202.774 467.182 218.588 471.928 235.457 471.928C260.76 471.928 283.778 461.733 300.471 445.212C313.825 432.029 323.138 414.629 326.477 395.295C328.058 386.155 327.18 376.136 329.64 366.996C331.924 358.033 336.668 350.123 342.994 343.796C362.85 323.934 395.005 323.934 415.037 343.796C434.19 362.954 435.068 393.713 416.97 413.75C410.995 420.253 403.44 425.35 394.83 428.162C383.76 431.853 378.313 430.447 367.243 431.853C346.508 434.49 328.058 443.981 314.001 458.042C299.768 472.279 290.104 491.438 287.644 512.529C286.59 520.966 287.468 525.536 285.535 533.973Z" fill="#313A42"/>
</g>
</svg>
