<svg width="210" height="46" viewBox="0 0 210 46" fill="none" xmlns="http://www.w3.org/2000/svg">
<path opacity="0.71" d="M20.3002 1.53049C19.9147 1.20511 19.493 0.91588 19.0473 0.68691C18.1798 0.241021 17.204 0 16.1799 0C14.433 0 12.8548 0.711013 11.7103 1.85586C10.9031 2.66328 10.3128 3.68763 10.0357 4.84453C9.83085 5.70015 9.87904 6.91731 9.5658 7.67653C9.38509 8.09831 9.13209 8.48395 8.80681 8.79727C8.49357 9.1106 8.10804 9.37573 7.69842 9.54444C6.96352 9.85777 5.91538 9.80956 5.10819 9.97827C3.85524 10.2313 2.73481 10.846 1.86738 11.7136C0.710808 12.8464 0 14.4251 0 16.1725C0 17.2089 0.252999 18.173 0.686713 19.0407C0.987904 19.6432 1.38548 20.1855 1.85533 20.6555C4.24076 23.0296 6.91533 21.7281 8.74656 23.4875C9.25256 23.9816 9.61399 24.6324 9.75856 25.3554C9.86699 25.9339 9.8429 26.5123 9.93928 27.1028C10.1682 28.5128 10.8669 29.7059 11.8548 30.6217C14.3487 32.9476 18.228 32.8873 20.6376 30.4771C23.0591 28.0549 23.1073 24.1624 20.7701 21.6678C19.8906 20.7399 18.734 20.065 17.4329 19.7999C16.6618 19.6432 16.192 19.7276 15.5294 19.6071C14.8788 19.4866 14.2885 19.1853 13.8186 18.7514C13.1921 18.173 12.7825 17.3776 12.6982 16.4738C12.6139 15.4977 12.9391 14.5456 13.6018 13.8226C14.0114 13.3646 14.5535 13.0272 15.1559 12.8344C15.9751 12.5813 16.3366 12.7018 17.1799 12.5693C18.0232 12.4367 18.481 12.28 19.24 11.8582C20.8303 10.9785 21.9748 9.44803 22.3604 7.66447C22.8543 5.29041 22.1556 3.14533 20.3002 1.53049ZM5.566 19.583C4.85519 19.4263 4.22871 19.0527 3.74681 18.5225C2.49386 17.1487 2.54205 15.0277 3.85524 13.7021C4.301 13.2562 4.86724 12.9308 5.49371 12.7741C6.12019 12.6175 6.86714 12.6657 7.67433 12.4849C8.85499 12.2318 9.92723 11.6293 10.7826 10.7736C11.6982 9.85777 12.3127 8.67676 12.5416 7.39935C12.662 6.70039 12.6138 5.88092 12.8428 5.20606C13.0235 4.67581 13.3247 4.19377 13.7102 3.80814C15.0716 2.47047 17.2642 2.48252 18.6136 3.83224C19.9388 5.15785 19.9749 7.29089 18.7099 8.66471C18.3726 9.02624 17.963 9.32752 17.4931 9.52034C16.5775 9.90597 16.204 9.76136 15.3005 9.88187C14.7824 9.95418 14.2764 10.0867 13.7825 10.2795C13.2644 10.4844 13.1198 10.5688 12.6741 10.858C11.8548 11.4003 11.1681 12.1234 10.6621 12.9669C10.12 13.9069 9.80676 14.9915 9.80676 16.1484C9.80676 17.8838 10.5055 19.4625 11.638 20.6073C12.5416 21.5232 13.7343 22.1619 15.0595 22.3909C15.686 22.4993 16.3848 22.4391 16.9992 22.6078C17.6136 22.7644 18.1558 23.0898 18.5895 23.5237C19.9508 24.8854 19.9508 27.1028 18.5895 28.4646C17.2763 29.7782 15.1679 29.8384 13.7945 28.5972C13.3488 28.1874 12.9994 27.6692 12.8066 27.0787C12.5536 26.3195 12.65 25.9459 12.5536 25.1867C12.3729 23.7647 11.7223 22.4993 10.7585 21.5352C9.78266 20.5591 8.46947 19.8963 7.02376 19.7276C6.45752 19.6432 6.14428 19.7035 5.566 19.583Z" fill="url(#paint0_linear)"/>
<path opacity="0.78" d="M40.6367 20.294C40.962 19.9083 41.2511 19.4866 41.48 19.0407C41.9258 18.173 42.1667 17.1969 42.1667 16.1725C42.1667 14.4251 41.4559 12.8464 40.3114 11.7016C39.5042 10.8942 38.4802 10.3037 37.3236 10.0265C36.4682 9.82161 35.2514 9.86982 34.4924 9.55649C34.0707 9.37572 33.6852 9.12265 33.372 8.79727C33.0587 8.48395 32.7937 8.09832 32.625 7.68858C32.3118 6.95347 32.3479 5.90502 32.1913 5.0976C31.9383 3.84429 31.3239 2.72354 30.4565 1.85586C29.3119 0.711013 27.7337 0 25.9868 0C24.9507 0 23.9869 0.253072 23.1195 0.68691C22.5171 0.988186 21.9749 1.38587 21.5051 1.85586C19.1317 4.24197 20.4328 6.91731 18.6739 8.73702C18.1799 9.25521 17.5294 9.6047 16.8065 9.74931C16.2282 9.85777 15.6499 9.83367 15.0596 9.93008C13.65 10.159 12.4573 10.858 11.5417 11.8462C9.21652 14.3408 9.27676 18.2212 11.6863 20.6314C14.1078 23.0537 17.9992 23.1019 20.4931 20.764C21.4207 19.8842 22.0954 18.7273 22.3605 17.4258C22.5171 16.6666 22.4327 16.1846 22.5532 15.5218C22.6737 14.871 22.9749 14.2805 23.4086 13.8105C23.9869 13.1839 24.782 12.7741 25.6856 12.6898C26.6615 12.6054 27.6132 12.9308 28.3361 13.5936C28.7939 14.0033 29.1312 14.5456 29.324 15.1482C29.577 15.9676 29.4565 16.3292 29.6011 17.1728C29.7336 18.0163 29.8902 18.4743 30.3119 19.2335C31.1914 20.8242 32.7214 21.9691 34.5045 22.3547C36.8658 22.8609 39.0223 22.1619 40.6367 20.294ZM22.5894 5.55554C22.746 4.84453 23.1195 4.21788 23.6496 3.73583C25.023 2.48253 27.1434 2.53072 28.4686 3.84429C28.9144 4.29018 29.2396 4.85658 29.3963 5.48323C29.5529 6.10989 29.5047 6.85705 29.6854 7.66447C29.9384 8.84548 30.5408 9.91802 31.3962 10.7736C32.3118 11.6895 33.4925 12.3041 34.7695 12.5331C35.4683 12.6536 36.2875 12.6054 36.9622 12.8344C37.4923 13.0151 37.9742 13.3164 38.3597 13.7021C39.697 15.0638 39.6849 17.2571 38.3356 18.6068C37.0104 19.9325 34.8779 19.9807 33.5045 18.7032C33.1431 18.3658 32.8419 17.9561 32.6491 17.4861C32.2636 16.5702 32.4082 16.1846 32.2877 15.2928C32.2154 14.7746 32.0829 14.2685 31.8901 13.7864C31.6853 13.2682 31.601 13.1236 31.3118 12.6777C30.7697 11.8582 30.0468 11.1713 29.2035 10.6652C28.2638 10.1229 27.1795 9.79751 26.0229 9.79751C24.2881 9.79751 22.7098 10.4965 21.5653 11.6293C20.6497 12.5331 20.0112 13.7262 19.7823 15.0518C19.6738 15.6784 19.7341 16.3653 19.5654 16.992C19.4088 17.6066 19.0835 18.1489 18.6498 18.5827C17.2884 19.9445 15.0837 19.9445 13.7103 18.5827C12.3971 17.2692 12.3368 15.1602 13.5778 13.7864C13.9874 13.3405 14.5054 12.991 15.0957 12.7982C15.8547 12.5452 16.2282 12.6416 16.9872 12.5452C18.4088 12.3644 19.6738 11.7016 20.6376 10.7495C21.6135 9.76136 22.2761 8.45984 22.4448 7.01371C22.5171 6.44731 22.4568 6.13399 22.5894 5.55554Z" fill="url(#paint1_linear)"/>
<path opacity="0.75" d="M21.8665 40.6362C22.252 40.9616 22.6737 41.2508 23.1194 41.4798C23.9869 41.9257 24.9627 42.1667 25.9868 42.1667C27.7337 42.1667 29.3119 41.4557 30.4564 40.3108C31.2636 39.5034 31.8539 38.4791 32.131 37.3222C32.3358 36.4665 32.2876 35.2494 32.6009 34.4902C32.7816 34.0684 33.0346 33.6827 33.3599 33.3694C33.6731 33.0561 34.0587 32.791 34.4683 32.6222C35.2032 32.3089 36.2513 32.3451 37.0585 32.1884C38.3115 31.9353 39.4319 31.3207 40.2993 30.4531C41.4438 29.3082 42.1546 27.7295 42.1546 25.9821C42.1546 24.9457 41.9016 23.9816 41.4679 23.114C41.1667 22.5114 40.7692 21.9691 40.2993 21.4991C37.9139 19.1251 35.2393 20.4266 33.4201 18.6671C32.9141 18.173 32.5527 17.5223 32.4081 16.7992C32.2997 16.2208 32.3238 15.6423 32.2274 15.0518C31.9985 13.6418 31.2998 12.4488 30.3118 11.5329C27.818 9.20703 23.9387 9.26729 21.5291 11.6775C19.1076 14.0998 19.0594 17.9923 21.3966 20.4868C22.2761 21.4148 23.4327 22.0896 24.7338 22.3427C25.5048 22.4994 25.9747 22.415 26.6373 22.5355C27.2879 22.656 27.8782 22.9573 28.3481 23.3911C28.9746 23.9696 29.3842 24.765 29.4685 25.6688C29.5528 26.6449 29.2276 27.597 28.5649 28.32C28.1553 28.778 27.6132 29.1154 27.0108 29.3082C26.1916 29.5613 25.8301 29.4408 24.9868 29.5854C24.1435 29.7179 23.6857 29.8746 22.9267 30.2964C21.3364 31.1761 20.1919 32.7066 19.8063 34.4902C19.3124 36.8763 20.0111 39.0214 21.8665 40.6362ZM36.6007 22.5837C37.3115 22.7404 37.938 23.114 38.4199 23.6442C39.6728 25.018 39.6246 27.139 38.3115 28.4646C37.8657 28.9105 37.2995 29.2359 36.673 29.3926C36.0465 29.5492 35.2996 29.501 34.4924 29.6818C33.3117 29.9349 32.2395 30.5374 31.3841 31.393C30.4685 32.3089 29.854 33.4899 29.6251 34.7673C29.5047 35.4663 29.5528 36.2858 29.3239 36.9606C29.1432 37.4909 28.842 37.9729 28.4565 38.3586C27.0951 39.6962 24.9025 39.6842 23.5531 38.3345C22.2279 37.0088 22.1918 34.8758 23.4568 33.502C23.7941 33.1404 24.2037 32.8392 24.6736 32.6464C25.5892 32.2607 25.9627 32.4053 26.8662 32.2848C27.3843 32.2125 27.8903 32.0799 28.3842 31.8871C28.9023 31.6823 29.0469 31.5979 29.4926 31.3087C30.3118 30.7664 30.9986 30.0433 31.5046 29.1997C32.0467 28.2598 32.3599 27.1752 32.3599 26.0183C32.3599 24.2829 31.6612 22.7042 30.5287 21.5594C29.6251 20.6435 28.4324 20.0048 27.1072 19.7758C26.4807 19.6674 25.7819 19.7276 25.1675 19.5589C24.5531 19.4022 24.0109 19.0769 23.5772 18.643C22.2159 17.2812 22.2159 15.0759 23.5772 13.7021C24.8904 12.3885 26.9988 12.3283 28.3722 13.5695C28.8179 13.9793 29.1673 14.4975 29.3601 15.088C29.6131 15.8472 29.5167 16.2208 29.6131 16.98C29.7938 18.402 30.4444 19.6674 31.4082 20.6314C32.384 21.6076 33.6972 22.2704 35.1429 22.4391C35.7092 22.5235 36.0224 22.4632 36.6007 22.5837Z" fill="url(#paint2_linear)"/>
<path opacity="0.78" d="M1.53005 21.8727C1.20476 22.2583 0.915618 22.6801 0.686713 23.126C0.240952 23.9937 0 24.9698 0 25.9942C0 27.7416 0.71081 29.3202 1.85533 30.4651C2.66252 31.2725 3.68657 31.863 4.84314 32.1402C5.69852 32.3451 6.91533 32.2969 7.67433 32.6102C8.09599 32.7909 8.48152 33.044 8.79475 33.3694C9.10799 33.6827 9.37304 34.0684 9.54171 34.4781C9.85494 35.2132 9.8188 36.2617 9.97542 37.0691C10.2284 38.3224 10.8429 39.4431 11.7103 40.3108C12.8548 41.4557 14.433 42.1667 16.1799 42.1667C17.216 42.1667 18.1798 41.9136 19.0473 41.4798C19.6497 41.1785 20.1918 40.7808 20.6617 40.3108C23.035 37.9247 21.7339 35.2614 23.4928 33.4297C23.9868 32.9235 24.6374 32.562 25.3602 32.4174C25.9385 32.3089 26.5168 32.333 27.1071 32.2366C28.5167 32.0076 29.7094 31.3087 30.625 30.3205C32.9502 27.8259 32.89 23.9455 30.4805 21.5353C28.0589 19.113 24.1675 19.0648 21.6736 21.4027C20.746 22.2824 20.0713 23.4393 19.8063 24.7408C19.6497 25.5121 19.734 25.9821 19.6135 26.6449C19.493 27.2957 19.1918 27.8862 18.7581 28.3562C18.1798 28.9828 17.3847 29.3925 16.4811 29.4769C15.5053 29.5613 14.5535 29.2359 13.8307 28.5731C13.3728 28.1633 13.0355 27.621 12.8428 27.0185C12.5898 26.199 12.7102 25.8375 12.5657 24.9939C12.4331 24.1503 12.2765 23.6924 11.8548 22.9332C10.9754 21.3424 9.44533 20.1976 7.66228 19.812C5.30095 19.3058 3.14443 20.0048 1.53005 21.8727ZM19.5774 36.6111C19.4207 37.3221 19.0473 37.9488 18.5172 38.4308C17.1437 39.6841 15.0234 39.6359 13.6981 38.3224C13.2524 37.8765 12.9271 37.3101 12.7705 36.6834C12.6138 36.0568 12.662 35.3096 12.4813 34.5022C12.2283 33.3212 11.6259 32.2487 10.7706 31.393C9.85494 30.4771 8.67428 29.8625 7.39723 29.6336C6.69847 29.5131 5.87923 29.5613 5.20457 29.3323C4.67447 29.1515 4.19257 28.8503 3.80704 28.4646C2.46976 27.1029 2.48181 24.9096 3.83114 23.5598C5.15638 22.2342 7.2888 22.1981 8.66223 23.4514C9.02366 23.7888 9.32485 24.1985 9.51761 24.6685C9.90314 25.5844 9.75856 25.958 9.87904 26.8618C9.95133 27.38 10.0838 27.8862 10.2766 28.3682C10.4814 28.8864 10.5658 29.031 10.8549 29.4769C11.397 30.2964 12.1199 30.9833 12.9632 31.4894C13.9029 32.0317 14.9872 32.3571 16.1438 32.3571C17.8787 32.3571 19.4569 31.6581 20.6014 30.5253C21.517 29.6215 22.1556 28.4285 22.3845 27.1029C22.4929 26.4762 22.4327 25.7893 22.6013 25.1626C22.7579 24.548 23.0832 24.0057 23.5169 23.5719C24.8783 22.2101 27.083 22.2101 28.4565 23.5719C29.7696 24.8855 29.8299 26.9944 28.589 28.3682C28.1794 28.8141 27.6613 29.1636 27.071 29.3564C26.312 29.6095 25.9385 29.5131 25.1795 29.6095C23.7579 29.7902 22.4929 30.441 21.5291 31.4051C20.5532 32.3812 19.8906 33.6948 19.7219 35.1409C19.6497 35.7194 19.7099 36.0327 19.5774 36.6111Z" fill="url(#paint3_linear)"/>
<path d="M57.9084 23.2249C62.4312 23.2249 65.033 25.4489 65.033 29.3865C65.033 33.5308 62.4312 35.925 57.9084 35.925H54.7109V40.8956H50.2124V23.2127H57.9084V23.2249ZM54.7109 32.4005H57.6896C59.6592 32.4005 60.8021 31.4161 60.8021 29.5445C60.8021 27.6972 59.6592 26.7614 57.6896 26.7614H54.7109V32.4005Z" fill="white"/>
<path d="M76.644 28.6331L75.1485 31.4647C73.5072 30.5776 71.9874 30.1036 70.8567 30.1036C70.0786 30.1036 69.5194 30.4074 69.5194 31.0394C69.5194 32.911 76.6926 31.9995 76.6683 36.7514C76.6683 39.5588 74.2123 41.0901 70.9297 41.0901C68.6561 41.0901 66.4555 40.4338 64.8142 39.1699L66.2002 36.3868C67.7443 37.4684 69.5072 38.0761 71.027 38.0761C71.8902 38.0761 72.5224 37.7723 72.5224 37.1403C72.5224 35.1472 65.4708 36.1802 65.4951 31.404C65.4951 28.5966 67.8659 27.0896 71.027 27.0896C73.0087 27.0896 74.9783 27.6486 76.644 28.6331Z" fill="white"/>
<path d="M84.9357 42.3176C83.9266 44.7968 82.2123 46 79.6835 46C78.1637 46 76.9236 45.5503 75.72 44.6145L77.5437 41.637C78.1759 42.1474 78.7108 42.3662 79.343 42.3662C80.1212 42.3662 80.6804 42.0137 81.033 41.2845L81.3613 40.604L75.6956 27.2962H80.1941L83.5254 36.3382L86.4798 27.2962H90.8202L84.9357 42.3176Z" fill="white"/>
<path d="M102.723 30.2008L99.5861 32.0967C98.9539 31.2095 98.0177 30.687 96.8262 30.687C95.1363 30.687 93.9691 32.0724 93.9691 34.1263C93.9691 36.2167 95.1363 37.59 96.8262 37.59C98.0663 37.59 99.0268 37.0796 99.6104 36.0465L102.796 37.9181C101.689 39.9113 99.4888 41.078 96.6074 41.078C92.4129 41.078 89.5801 38.2949 89.5801 34.1628C89.5801 29.9699 92.4372 27.1625 96.656 27.1625C99.3673 27.1382 101.544 28.2563 102.723 30.2008Z" fill="white"/>
<path d="M117.762 32.3155V40.9078H113.385V33.5308C113.385 31.9387 112.474 30.9543 110.99 30.9543C109.276 30.9543 108.206 32.3155 108.206 34.1871V40.9078H103.829V22.1675H108.206V29.5446C109.167 27.9282 110.759 27.1139 112.777 27.0896C115.793 27.0896 117.762 29.1435 117.762 32.3155Z" fill="white"/>
<path d="M133.385 34.0898C133.385 38.2827 130.407 41.0658 125.957 41.0658C121.483 41.0658 118.504 38.2827 118.504 34.0898C118.504 29.897 121.483 27.1382 125.957 27.1382C130.407 27.1382 133.385 29.897 133.385 34.0898ZM122.905 34.1384C122.905 36.2653 124.145 37.675 125.957 37.675C127.756 37.675 128.984 36.2653 128.984 34.1384C128.984 32.0481 127.744 30.6018 125.957 30.6018C124.133 30.6018 122.905 32.0481 122.905 34.1384Z" fill="white"/>
<path d="M134.65 40.9078V22.1675H139.027V40.9078H134.65Z" fill="white"/>
<path d="M155.173 34.0898C155.173 38.2827 152.194 41.0658 147.744 41.0658C143.27 41.0658 140.291 38.2827 140.291 34.0898C140.291 29.897 143.27 27.1382 147.744 27.1382C152.194 27.1382 155.173 29.897 155.173 34.0898ZM144.692 34.1384C144.692 36.2653 145.932 37.675 147.744 37.675C149.543 37.675 150.771 36.2653 150.771 34.1384C150.771 32.0481 149.531 30.6018 147.744 30.6018C145.932 30.6018 144.692 32.0481 144.692 34.1384Z" fill="white"/>
<path d="M169.324 39.6681C169.324 43.5329 166.346 45.9878 161.944 45.9878C159.574 45.9878 157.422 45.2343 155.878 44.1891L157.397 41.2359C158.637 42.0988 160.157 42.5971 161.616 42.5971C163.72 42.5971 164.972 41.4911 164.972 39.7897V38.3556C164.084 39.5223 162.747 40.1786 161.057 40.1786C157.616 40.1786 155.197 37.5535 155.197 33.5915C155.197 29.7268 157.543 27.1503 160.96 27.1503C162.698 27.126 164.072 27.7823 164.972 28.9733V27.3083H169.312V39.6681H169.324ZM164.984 33.7131C164.984 31.7199 163.841 30.3831 162.151 30.3831C160.437 30.3831 159.27 31.7442 159.27 33.7131C159.27 35.6576 160.437 37.0187 162.151 37.0187C163.841 37.0187 164.984 35.6576 164.984 33.7131Z" fill="white"/>
<path d="M175.951 23.3829C175.951 24.744 174.99 25.7041 173.653 25.7041C172.315 25.7041 171.355 24.744 171.355 23.3829C171.355 22.046 172.315 21.0859 173.653 21.0859C174.99 21.0859 175.951 22.046 175.951 23.3829ZM171.452 40.9078V27.2962H175.792V40.9078H171.452Z" fill="white"/>
<path d="M190.102 30.2008L186.966 32.0967C186.333 31.2095 185.397 30.687 184.206 30.687C182.516 30.687 181.349 32.0724 181.349 34.1263C181.349 36.2167 182.516 37.59 184.206 37.59C185.446 37.59 186.406 37.0796 186.99 36.0465L190.175 37.9181C189.069 39.9113 186.868 41.078 183.987 41.078C179.792 41.078 176.96 38.2949 176.96 34.1628C176.96 29.9699 179.817 27.1625 184.036 27.1625C186.747 27.1382 188.923 28.2563 190.102 30.2008Z" fill="white"/>
<path d="M202.893 32.0116V40.9078H198.625V39.34C197.738 40.5067 196.303 41.1022 194.455 41.1022C191.549 41.1022 189.786 39.34 189.786 36.8365C189.786 34.26 191.634 32.7408 195.014 32.7165H198.601V32.5099C198.601 31.1731 197.713 30.3588 195.95 30.3588C194.808 30.3588 193.324 30.7599 191.877 31.5012L190.637 28.6209C192.765 27.6365 194.686 27.0774 196.96 27.0774C200.704 27.0896 202.868 28.9369 202.893 32.0116ZM198.601 36.2896V35.0742H195.841C194.528 35.0742 193.871 35.5239 193.871 36.5448C193.871 37.5292 194.577 38.1612 195.792 38.1612C197.166 38.149 198.321 37.3955 198.601 36.2896Z" fill="white"/>
<path d="M204.923 40.9078V22.1675H209.3V40.9078H204.923Z" fill="white"/>
<path d="M64.9844 12.0803V18.3757C63.258 19.6882 60.6926 20.5997 58.3461 20.5997C53.3006 20.5997 49.3735 16.8201 49.3735 11.9466C49.3735 7.07318 53.3492 3.34213 58.5163 3.34213C60.9601 3.34213 63.3917 4.26578 65.0817 5.73632L63.4525 7.86314C62.1394 6.64781 60.3036 5.91862 58.5285 5.91862C55.0392 5.91862 52.3036 8.58018 52.3036 11.9709C52.3036 15.386 55.0635 18.0475 58.5528 18.0475C59.8173 18.0475 61.2641 17.61 62.4799 16.8808V12.1289H64.9844V12.0803Z" fill="white"/>
<path d="M67.8415 2.38202H70.65V20.4782H67.8415V2.38202Z" fill="white"/>
<path d="M86.0664 13.9884C86.0664 17.8895 83.3065 20.5754 79.3065 20.5754C75.2822 20.5754 72.5223 17.8895 72.5223 13.9884C72.5223 10.0629 75.2822 7.40131 79.3065 7.40131C83.3065 7.40131 86.0664 10.0629 86.0664 13.9884ZM75.3308 14.0127C75.3308 16.5284 76.96 18.2298 79.3065 18.2298C81.6287 18.2298 83.2579 16.5284 83.2579 14.0127C83.2579 11.5212 81.6287 9.8198 79.3065 9.8198C76.9722 9.8198 75.3308 11.5212 75.3308 14.0127Z" fill="white"/>
<path d="M101.483 14.037C101.483 17.9138 99.0389 20.5754 95.3308 20.5754C93.2517 20.5754 91.6955 19.749 90.7472 18.2298V20.4782H87.9387V2.38202H90.7472V9.74688C91.6955 8.23988 93.2639 7.40131 95.2821 7.40131C98.9782 7.40131 101.483 10.0872 101.483 14.037ZM98.662 13.9397C98.662 11.5212 97.0329 9.74688 94.7107 9.74688C92.3885 9.74688 90.7593 11.4969 90.7593 13.9397C90.7593 16.4555 92.3885 18.1812 94.7107 18.1812C97.0207 18.1812 98.662 16.419 98.662 13.9397Z" fill="white"/>
<path d="M111.027 18.8861C110.103 20.0285 108.607 20.5875 106.735 20.5875C103.926 20.5875 102.176 18.8618 102.176 16.5648C102.176 14.195 103.951 12.688 107.075 12.6636H111.002V12.2747C111.002 10.6462 109.957 9.6618 107.902 9.6618C106.662 9.6618 105.361 10.0993 104.072 10.9743L102.93 9.01768C104.729 7.9482 106.054 7.38914 108.51 7.38914C111.854 7.38914 113.726 9.09059 113.75 11.9466L113.774 20.4539H111.015V18.8861H111.027ZM111.002 15.9086V14.7175H107.489C105.665 14.7175 104.802 15.2037 104.802 16.4433C104.802 17.61 105.75 18.3635 107.319 18.3635C109.325 18.3757 110.857 17.3305 111.002 15.9086Z" fill="white"/>
<path d="M116.498 2.38202H119.306V20.4782H116.498V2.38202Z" fill="white"/>
<defs>
<linearGradient id="paint0_linear" x1="11.2543" y1="-0.00602553" x2="11.2543" y2="32.3214" gradientUnits="userSpaceOnUse">
<stop stop-color="#03B0FF"/>
<stop offset="0.6523" stop-color="#2C5AED"/>
<stop offset="1" stop-color="#4031E5"/>
</linearGradient>
<linearGradient id="paint1_linear" x1="9.84878" y1="11.2516" x2="42.1667" y2="11.2516" gradientUnits="userSpaceOnUse">
<stop stop-color="#4AFF68"/>
<stop offset="0.4862" stop-color="#C2E700"/>
<stop offset="0.7301" stop-color="#E0BC11"/>
<stop offset="1" stop-color="#FF9022"/>
</linearGradient>
<linearGradient id="paint2_linear" x1="30.9124" y1="9.8455" x2="30.9124" y2="42.1724" gradientUnits="userSpaceOnUse">
<stop stop-color="#F48863"/>
<stop offset="0.2478" stop-color="#EB6B66"/>
<stop offset="0.7815" stop-color="#D5236E"/>
<stop offset="1" stop-color="#CC0372"/>
</linearGradient>
<linearGradient id="paint3_linear" x1="0" y1="30.9148" x2="32.318" y2="30.9148" gradientUnits="userSpaceOnUse">
<stop stop-color="#4A34FF"/>
<stop offset="0.6304" stop-color="#771DFF"/>
<stop offset="0.9961" stop-color="#930EFF"/>
</linearGradient>
</defs>
</svg>
